<svg width="13" height="13" viewBox="0 0 13 13" fill="none" xmlns="http://www.w3.org/2000/svg">
<g clip-path="url(#clip0_1_73)">
<path d="M6.24269 1.24312C6.26642 1.19517 6.30309 1.1548 6.34856 1.12657C6.39402 1.09835 6.44647 1.08339 6.49998 1.08339C6.55349 1.08339 6.60594 1.09835 6.6514 1.12657C6.69686 1.1548 6.73353 1.19517 6.75727 1.24312L8.00852 3.77758C8.09095 3.9444 8.21263 4.08872 8.36311 4.19816C8.51359 4.3076 8.68838 4.37889 8.87248 4.40592L11.6707 4.81542C11.7238 4.8231 11.7736 4.84546 11.8145 4.87998C11.8555 4.9145 11.886 4.9598 11.9026 5.01075C11.9191 5.06169 11.9211 5.11626 11.9083 5.16828C11.8955 5.22029 11.8683 5.26768 11.83 5.30508L9.80631 7.27567C9.67285 7.40572 9.573 7.56626 9.51535 7.74347C9.45769 7.92067 9.44397 8.10923 9.47535 8.29292L9.9531 11.0771C9.96246 11.1301 9.95674 11.1846 9.93658 11.2345C9.91642 11.2844 9.88265 11.3277 9.83911 11.3593C9.79556 11.3909 9.74401 11.4097 9.69032 11.4134C9.63664 11.4171 9.58298 11.4057 9.53548 11.3804L7.03406 10.0652C6.86924 9.97871 6.68587 9.93349 6.49971 9.93349C6.31355 9.93349 6.13017 9.97871 5.96535 10.0652L3.46448 11.3804C3.41699 11.4056 3.3634 11.4169 3.30981 11.4131C3.25621 11.4092 3.20476 11.3905 3.1613 11.3589C3.11785 11.3273 3.08414 11.2841 3.064 11.2343C3.04386 11.1845 3.03811 11.13 3.04739 11.0771L3.5246 8.29346C3.55613 8.10969 3.54247 7.92101 3.48481 7.74369C3.42715 7.56638 3.32722 7.40575 3.19364 7.27567L1.16998 5.30562C1.1313 5.26827 1.10389 5.2208 1.09087 5.16862C1.07786 5.11645 1.07976 5.06167 1.09635 5.01052C1.11295 4.95937 1.14358 4.91391 1.18475 4.87932C1.22592 4.84473 1.27598 4.8224 1.32923 4.81487L4.12694 4.40592C4.31124 4.3791 4.48627 4.30791 4.63696 4.19845C4.78765 4.089 4.90948 3.94456 4.99198 3.77758L6.24269 1.24312Z" fill="#FFB900" stroke="#FFB900" stroke-width="1.08333" stroke-linecap="round" stroke-linejoin="round"/>
</g>
<defs>
<clipPath id="clip0_1_73">
<rect width="13" height="13" fill="white"/>
</clipPath>
</defs>
</svg>
