<svg width="46" height="46" viewBox="0 0 46 46" fill="none" xmlns="http://www.w3.org/2000/svg">
<foreignObject x="-11" y="-15" width="68" height="68"><div xmlns="http://www.w3.org/1999/xhtml" style="backdrop-filter:blur(8px);clip-path:url(#bgblur_0_1_136_clip_path);height:100%;width:100%"></div></foreignObject><g filter="url(#filter0_dd_1_136)" data-figma-bg-blur-radius="16">
<path d="M5 19C5 9.05888 13.0589 1 23 1C32.9411 1 41 9.05888 41 19C41 28.9411 32.9411 37 23 37C13.0589 37 5 28.9411 5 19Z" fill="white" fill-opacity="0.85" shape-rendering="crispEdges"/>
<g clip-path="url(#clip1_1_136)">
<path d="M27.6667 20.3333C28.66 19.36 29.6667 18.1933 29.6667 16.6667C29.6667 15.6942 29.2804 14.7616 28.5927 14.0739C27.9051 13.3863 26.9725 13 26 13C24.8267 13 24 13.3333 23 14.3333C22 13.3333 21.1733 13 20 13C19.0275 13 18.0949 13.3863 17.4073 14.0739C16.7196 14.7616 16.3333 15.6942 16.3333 16.6667C16.3333 18.2 17.3333 19.3667 18.3333 20.3333L23 25L27.6667 20.3333Z" stroke="#90A1B9" stroke-width="1.33333" stroke-linecap="round" stroke-linejoin="round"/>
</g>
</g>
<defs>
<filter id="filter0_dd_1_136" x="-11" y="-15" width="68" height="68" filterUnits="userSpaceOnUse" color-interpolation-filters="sRGB">
<feFlood flood-opacity="0" result="BackgroundImageFix"/>
<feColorMatrix in="SourceAlpha" type="matrix" values="0 0 0 0 0 0 0 0 0 0 0 0 0 0 0 0 0 0 127 0" result="hardAlpha"/>
<feMorphology radius="2" operator="erode" in="SourceAlpha" result="effect1_dropShadow_1_136"/>
<feOffset dy="2"/>
<feGaussianBlur stdDeviation="2"/>
<feComposite in2="hardAlpha" operator="out"/>
<feColorMatrix type="matrix" values="0 0 0 0 0 0 0 0 0 0 0 0 0 0 0 0 0 0 0.1 0"/>
<feBlend mode="normal" in2="BackgroundImageFix" result="effect1_dropShadow_1_136"/>
<feColorMatrix in="SourceAlpha" type="matrix" values="0 0 0 0 0 0 0 0 0 0 0 0 0 0 0 0 0 0 127 0" result="hardAlpha"/>
<feMorphology radius="1" operator="erode" in="SourceAlpha" result="effect2_dropShadow_1_136"/>
<feOffset dy="4"/>
<feGaussianBlur stdDeviation="3"/>
<feComposite in2="hardAlpha" operator="out"/>
<feColorMatrix type="matrix" values="0 0 0 0 0 0 0 0 0 0 0 0 0 0 0 0 0 0 0.1 0"/>
<feBlend mode="normal" in2="effect1_dropShadow_1_136" result="effect2_dropShadow_1_136"/>
<feBlend mode="normal" in="SourceGraphic" in2="effect2_dropShadow_1_136" result="shape"/>
</filter>
<clipPath id="bgblur_0_1_136_clip_path" transform="translate(11 15)"><path d="M5 19C5 9.05888 13.0589 1 23 1C32.9411 1 41 9.05888 41 19C41 28.9411 32.9411 37 23 37C13.0589 37 5 28.9411 5 19Z"/>
</clipPath><clipPath id="clip1_1_136">
<rect width="16" height="16" fill="white" transform="translate(15 11)"/>
</clipPath>
</defs>
</svg>
